<svg xmlns="http://www.w3.org/2000/svg" width="49" height="49" viewBox="0 0 49 49">
  <g id="icon_hand" transform="translate(0.452 0.452)">
    <rect id="Rectangle" width="49" height="49" rx="24.5" transform="translate(-0.452 -0.452)" fill="#fff"/>
    <path id="Path_22" data-name="Path 22" d="M-296.274,899.831c0-.352.022-.687,0-1.019a2.053,2.053,0,0,1,3.2-1.9c.015.011.04.008.09.016a2.075,2.075,0,0,1,.891-1.621,2.005,2.005,0,0,1,1.351-.358c1.064.088,1.736.876,1.866,2.165a5.292,5.292,0,0,1,1-.317,2.016,2.016,0,0,1,2.28,2.06q.008,4.111,0,8.222a16.542,16.542,0,0,0,.062,1.734l.479-.826c.09-.155.177-.313.271-.466a2.044,2.044,0,0,1,2.83-.682,1.985,1.985,0,0,1,.705,2.69c-1.2,2.115-2.425,4.214-3.64,6.32a.609.609,0,0,1-.072.1,10.5,10.5,0,0,1-6.12,3.64A6.985,6.985,0,0,1-299.3,914.1a13.682,13.682,0,0,1-.276-3.152c.006-3.079.05-6.16-.015-9.237A2.074,2.074,0,0,1-296.4,899.8.546.546,0,0,0-296.274,899.831Zm3.3,6.244v-.732q0-3.318,0-6.636a1.286,1.286,0,0,0-.98-1.346,1.255,1.255,0,0,0-1.548,1.269q-.007,3.54,0,7.08v.355h-.774v-.4c0-1.355,0-2.709,0-4.064a1.29,1.29,0,0,0-1.266-1.38A1.276,1.276,0,0,0-298.8,901.6c0,3.408-.021,6.815.014,10.223a9.68,9.68,0,0,0,.326,2.378,6.154,6.154,0,0,0,7.256,4.633,9.758,9.758,0,0,0,5.62-3.332,1.055,1.055,0,0,0,.121-.185q1.745-3.021,3.488-6.043a1.244,1.244,0,0,0-.35-1.757,1.276,1.276,0,0,0-1.847.5q-.7,1.206-1.395,2.417c-.119.208-.253.384-.52.306-.25-.073-.277-.281-.276-.509q.006-3.223,0-6.445c0-1.63,0-3.259,0-4.889a1.285,1.285,0,0,0-1.133-1.344,1.258,1.258,0,0,0-1.393,1.3q-.008,3.413,0,6.826v.39h-.772V905.7c0-2.857.006-5.715-.013-8.572a1.8,1.8,0,0,0-.255-.89,1.186,1.186,0,0,0-1.4-.46,1.251,1.251,0,0,0-.859,1.208q-.006,4.35,0,8.7c0,.124,0,.247,0,.385Z" transform="translate(315.011 -883.226)" fill="#0056d2" stroke="#0056d2" stroke-width="0.5"/>
  </g>
</svg>
