<svg xmlns="http://www.w3.org/2000/svg" width="70" height="70" viewBox="0 0 70 70">
  <g id="logo_icon" transform="translate(-30.09 -63.089)">
    <rect id="Rectangle_1938" data-name="Rectangle 1938" width="70" height="70" rx="18" transform="translate(30.09 63.089)" fill="#0056d2"/>
    <path id="Path_1492" data-name="Path 1492" d="M21.441,7.7a7.147,7.147,0,0,0-3.3-5.593C14.126-.479,9.716-.549,5.333,1.156,1.271,2.736.086,5.97.057,9.649c-.029,3.7-.006,7.4-.006,11.1H.036c0,3.893-.1,7.79.032,11.679.1,3.092,1.049,5.943,4.194,7.772,7.367,4.284,16.841.524,17.336-7.248A166.382,166.382,0,0,0,21.441,7.7M13.725,21.014c0,4.091-.1,8.184.043,12.271.064,1.884-1.182,1.7-2.48,1.653-1.258-.045-2.787.463-2.749-1.622.107-5.879,0-11.761.1-17.641.025-1.52-.325-2.308-2.211-2.069-.874.11-1.829.084-1.678-1.109.106-.84-.544-1.966,1.274-2.124A4.221,4.221,0,0,0,9.814,7.93c.64-1.512,2.082-.852,3.145-.851,1.216,0,.737,1.057.744,1.663.042,4.09.022,8.181.022,12.272" transform="translate(54.089 77.089)" fill="#fff"/>
  </g>
</svg>
