<svg xmlns="http://www.w3.org/2000/svg" width="203.471" height="190.753" viewBox="0 0 203.471 190.753">
  <g id="noun-remove-credit-card-1286017" transform="translate(-136.668 -93.332)">
    <path id="Path_51502" data-name="Path 51502" d="M333.777,188.707a6.006,6.006,0,0,0,6.358-6.358V118.767A25.508,25.508,0,0,0,314.7,93.334l-152.6,0a25.508,25.508,0,0,0-25.433,25.433v89.019A25.508,25.508,0,0,0,162.1,233.217h76.3a50.869,50.869,0,1,0,50.869-50.869c-23.525,0-43.238,16.532-48.961,38.15l-78.208,0a12.754,12.754,0,0,1-12.717-12.717V150.557H327.417V182.35a6.009,6.009,0,0,0,6.36,6.358Zm-44.508,6.36a38.15,38.15,0,1,1-38.15,38.15,38.262,38.262,0,0,1,38.15-38.15ZM149.382,125.123v-6.358A12.754,12.754,0,0,1,162.1,106.048H314.7a12.754,12.754,0,0,1,12.717,12.717v6.358Z" transform="translate(0)" fill="#ff9a00"/>
    <path id="Path_51503" data-name="Path 51503" d="M212.586,257.211c-2.543-1.908-6.358-2.543-9.538-2.543a19.71,19.71,0,1,0,0,39.421,21.078,21.078,0,0,0,9.538-2.543,24.565,24.565,0,0,1,0-34.335Z" transform="translate(-24.414 -84.398)" fill="#ff9a00"/>
    <path id="Path_51504" data-name="Path 51504" d="M278.755,273.046a19.711,19.711,0,1,1-19.71-19.712,19.71,19.71,0,0,1,19.71,19.712" transform="translate(-53.706 -83.701)" fill="#ff9a00"/>
    <path id="Path_51505" data-name="Path 51505" d="M410.577,382.543a6.145,6.145,0,0,0,8.9,0l12.08-12.08,12.08,12.08a6.145,6.145,0,0,0,8.9,0,6.148,6.148,0,0,0,0-8.9l-12.078-12.08,12.08-12.08a6.295,6.295,0,0,0-8.9-8.9l-12.078,12.08-12.08-12.08a6.295,6.295,0,0,0-8.9,8.9l12.08,12.08-12.08,12.08A6.145,6.145,0,0,0,410.577,382.543Z" transform="translate(-142.289 -128.342)" fill="#ff9a00"/>
  </g>
</svg>
